# xmcd
# 
# Track frame offsets:
#     150
#     14787
#     37672
#     69782
#     81772
#     102325
#     118295
#     139287
#     154142
#     180175
# 
# Disc length: 2735
# 
# Revision: 25
# Processed by: cddbd v1.5.2PL0 Copyright (c) Steve Scherf et al.
# Submitted via: fre:ac v1.0.31
# 
DISCID=7b0aad0a
DTITLE=Bob Dylan - The Times They Are A-Changin
DYEAR=1964
DGENRE=Rock/Pop
TTITLE0=The Times They Are A-changin'
TTITLE1=Ballad of Hollis Brown
TTITLE2=With God On Our Side
TTITLE3=One Too Many Mornings
TTITLE4=North Country Blues
TTITLE5=Only a Pawn In Their Game
TTITLE6=Boots Of Spanish Leather
TTITLE7=When the Ship Comes In
TTITLE8=The Lonesome Death Of Hattie Carroll
TTITLE9=Restless Farewell
EXTD=YEAR: 1964
EXTT0=
EXTT1=
EXTT2=
EXTT3=
EXTT4=
EXTT5=
EXTT6=
EXTT7=
EXTT8=
EXTT9=
PLAYORDER=
